<svg width="55" height="55" viewBox="0 0 55 55" fill="none" xmlns="http://www.w3.org/2000/svg">
<path d="M27.5 2.84074C28.4492 2.84074 29.2187 3.60385 29.2187 4.54519V6.81779C29.2187 7.75913 28.4492 8.52223 27.5 8.52223C26.5508 8.52223 25.7812 7.75913 25.7812 6.81779V4.54519C25.7812 3.60385 26.5508 2.84074 27.5 2.84074Z" fill="white"/>
<path fill-rule="evenodd" clip-rule="evenodd" d="M14.3229 27.2711C14.3229 20.0542 20.2225 14.2037 27.5 14.2037C34.7775 14.2037 40.6771 20.0542 40.6771 27.2711C40.6771 34.4881 34.7775 40.3386 27.5 40.3386C20.2225 40.3386 14.3229 34.4881 14.3229 27.2711ZM27.5 17.6126C22.121 17.6126 17.7604 21.9369 17.7604 27.2711C17.7604 32.6054 22.121 36.9297 27.5 36.9297C32.879 36.9297 37.2396 32.6054 37.2396 27.2711C37.2396 21.9369 32.879 17.6126 27.5 17.6126Z" fill="white"/>
<path d="M12.5108 9.99629C11.8396 9.33067 10.7514 9.33067 10.0802 9.99629C9.40894 10.6619 9.40894 11.7411 10.0802 12.4067L11.7006 14.0137C12.3718 14.6793 13.4601 14.6793 14.1313 14.0137C14.8025 13.3481 14.8025 12.2689 14.1313 11.6033L12.5108 9.99629Z" fill="white"/>
<path d="M52.1354 27.2711C52.1354 28.2125 51.3659 28.9756 50.4167 28.9756H48.125C47.1758 28.9756 46.4062 28.2125 46.4062 27.2711C46.4062 26.3298 47.1758 25.5667 48.125 25.5667H50.4167C51.3659 25.5667 52.1354 26.3298 52.1354 27.2711Z" fill="white"/>
<path d="M44.9198 12.4067C45.591 11.7411 45.591 10.6619 44.9198 9.99628C44.2486 9.33065 43.1603 9.33065 42.4891 9.99628L40.8687 11.6032C40.1975 12.2689 40.1975 13.3481 40.8687 14.0137C41.5399 14.6793 42.6281 14.6793 43.2994 14.0137L44.9198 12.4067Z" fill="white"/>
<path d="M27.5 46.0201C28.4492 46.0201 29.2187 46.7832 29.2187 47.7245V49.9971C29.2187 50.9384 28.4492 51.7015 27.5 51.7015C26.5508 51.7015 25.7812 50.9384 25.7812 49.9971V47.7245C25.7812 46.7832 26.5508 46.0201 27.5 46.0201Z" fill="white"/>
<path d="M43.2995 40.5286C42.6283 39.863 41.54 39.863 40.8688 40.5286C40.1976 41.1942 40.1976 42.2734 40.8688 42.9391L42.4893 44.546C43.1605 45.2117 44.2487 45.2117 44.92 44.546C45.5912 43.8804 45.5912 42.8012 44.92 42.1356L43.2995 40.5286Z" fill="white"/>
<path d="M8.59375 27.2711C8.59375 28.2125 7.82423 28.9756 6.875 28.9756H4.58333C3.63409 28.9756 2.86458 28.2125 2.86458 27.2711C2.86458 26.3298 3.63409 25.5667 4.58333 25.5667H6.875C7.82424 25.5667 8.59375 26.3298 8.59375 27.2711Z" fill="white"/>
<path d="M14.1311 42.939C14.8024 42.2734 14.8024 41.1942 14.1311 40.5286C13.4599 39.863 12.3717 39.863 11.7005 40.5286L10.08 42.1356C9.40879 42.8012 9.40879 43.8804 10.08 44.546C10.7512 45.2116 11.8395 45.2116 12.5107 44.546L14.1311 42.939Z" fill="white"/>
</svg>
